{
  "accessors": [
    {
      "bufferView": 1,
      "componentType": 5126,
      "count": 9692,
      "max": [
        0.3681573271751404,
        0.3962439298629761,
        6.003500938415527
      ],
      "min": [
        -0.368157297372818,
        -0.24142326414585114,
        -0.00528627447783947
      ],
      "type": "VEC3"
    },
    {
      "bufferView": 1,
      "byteOffset": 116304,
      "componentType": 5126,
      "count": 9692,
      "max": [
        1.0,
        1.0,
        1.0
      ],
      "min": [
        -1.0,
        -1.0,
        -1.0
      ],
      "type": "VEC3"
    },
    {
      "bufferView": 0,
      "componentType": 5125,
      "count": 51756,
      "type": "SCALAR"
    }
  ],
  "asset": {
    "extras": {
      "author": "YouniqueĪdeaStudio (https://sketchfab.com/sinnervoncrawsz)",
      "license": "CC-BY-4.0 (http://creativecommons.org/licenses/by/4.0/)",
      "source": "https://sketchfab.com/3d-models/simple-antenna-tower-2e96af1aa06b454989e81f830742fff3",
      "title": "SIMPLE Antenna Tower"
    },
    "generator": "Sketchfab-15.87.0",
    "version": "2.0"
  },
  "bufferViews": [
    {
      "buffer": 0,
      "byteLength": 207024,
      "name": "floatBufferViews",
      "target": 34963
    },
    {
      "buffer": 0,
      "byteLength": 232608,
      "byteOffset": 207024,
      "byteStride": 12,
      "name": "floatBufferViews",
      "target": 34962
    }
  ],
  "buffers": [
    {
      "byteLength": 439632,
      "uri": "scene.bin"
    }
  ],
  "materials": [
    {
      "doubleSided": true,
      "name": "Scene_-_Root",
      "pbrMetallicRoughness": {
        "baseColorFactor": [
          0.0024609717759269565,
          0.22653400390734116,
          0.0,
          1.0
        ],
        "metallicFactor": 0.9602662516684444,
        "roughnessFactor": 0.6455204089364505
      }
    }
  ],
  "meshes": [
    {
      "name": "Object_0",
      "primitives": [
        {
          "attributes": {
            "NORMAL": 1,
            "POSITION": 0
          },
          "indices": 2,
          "material": 0,
          "mode": 4
        }
      ]
    }
  ],
  "nodes": [
    {
      "children": [
        1
      ],
      "matrix": [
        0.8450235724449158,
        1.187336904143188e-16,
        -0.53472900390625,
        0.0,
        -0.53472900390625,
        1.876329252958699e-16,
        -0.8450235724449158,
        0.0,
        0.0,
        1.0,
        2.220446049250313e-16,
        0.0,
        0.0,
        0.0,
        0.0,
        1.0
      ],
      "name": "Sketchfab_model"
    },
    {
      "children": [
        2
      ],
      "name": "Sarumon.stl.cleaner.materialmerger.gles"
    },
    {
      "mesh": 0,
      "name": "Object_2"
    }
  ],
  "scene": 0,
  "scenes": [
    {
      "name": "Sketchfab_Scene",
      "nodes": [
        0
      ]
    }
  ]
}
